<?xml version="1.0" encoding="utf-8"?>
<!-- Generator: Adobe Illustrator 16.0.4, SVG Export Plug-In . SVG Version: 6.00 Build 0)  -->
<!DOCTYPE svg PUBLIC "-//W3C//DTD SVG 1.1//EN" "http://www.w3.org/Graphics/SVG/1.1/DTD/svg11.dtd">
<svg version="1.1" xmlns="http://www.w3.org/2000/svg" xmlns:xlink="http://www.w3.org/1999/xlink" x="0px" y="0px" width="800px"
	 height="440px" viewBox="0 0 800 440" enable-background="new 0 0 800 440" xml:space="preserve">
<g id="bg" display="none">
	<rect display="inline" fill="#E1EFF5" width="800" height="440"/>
</g>
<g id="Arrows">
	
		<linearGradient id="SVGID_1_" gradientUnits="userSpaceOnUse" x1="88.9878" y1="254.5" x2="329.3491" y2="254.5" gradientTransform="matrix(1 0 0 -1 4 356)">
		<stop  offset="0.15" style="stop-color:#FFFFFF;stop-opacity:0"/>
		<stop  offset="1" style="stop-color:#0E63A0"/>
	</linearGradient>
	<path fill="url(#SVGID_1_)" d="M293.76,176.486c-84.208,0-161.719-46.738-200.772-122.475l53.328-27.498
		c30.646,59.434,98.533,94.559,165.225,89.485l21.809,30.458l-22.257,29.369C305.292,176.269,299.508,176.486,293.76,176.486z"/>
	
		<linearGradient id="SVGID_2_" gradientUnits="userSpaceOnUse" x1="88.9878" y1="639.0176" x2="329.3491" y2="639.0176" gradientTransform="matrix(1 0 0 1 4 -376.0273)">
		<stop  offset="0.15" style="stop-color:#FFFFFF;stop-opacity:0"/>
		<stop  offset="1" style="stop-color:#0E63A0"/>
	</linearGradient>
	<path fill="url(#SVGID_2_)" d="M293.76,188.004c-84.208,0-161.719,46.737-200.772,122.475l53.328,27.498
		c30.646-59.434,98.533-94.559,165.225-89.486l21.809-30.458l-22.257-29.369C305.292,188.222,299.508,188.004,293.76,188.004z"/>
	<polygon fill="#0166AB" points="770,222.812 599,222.812 599,142.812 770,142.812 800,181.812 	"/>
</g>
<g id="cloud">
	<path id="cloud-shadow" opacity="0.1" d="M600.55,145.479c0.275-2.532,0.43-5.101,0.43-7.706c0-38.766-31.426-70.191-70.191-70.191
		c-30.707,0-56.79,19.724-66.314,47.187c-7.058-8.078-17.426-13.187-28.994-13.187c-21.263,0-38.5,17.237-38.5,38.5
		c0,2.008,0.155,3.979,0.451,5.904c-26.784,5.882-46.833,29.736-46.833,58.287c0,32.968,26.725,59.692,59.69,59.692h180.001
		c32.966,0,59.689-26.725,59.689-59.692C649.979,174.807,628.622,150.346,600.55,145.479z"/>
	<path id="cloud_2_" fill="#FFFFFF" d="M593.55,138.479c0.275-2.532,0.43-5.101,0.43-7.706c0-38.766-31.426-70.191-70.191-70.191
		c-30.707,0-56.79,19.724-66.314,47.187c-7.058-8.078-17.426-13.187-28.994-13.187c-21.263,0-38.5,17.237-38.5,38.5
		c0,2.008,0.155,3.979,0.451,5.904c-26.784,5.882-46.834,29.736-46.834,58.287c0,32.967,26.726,59.692,59.69,59.692h180.001
		c32.966,0,59.689-26.725,59.689-59.692C642.979,167.807,621.622,143.346,593.55,138.479z"/>
	<g id="okta">
		<path fill="#0069AA" d="M432.436,158.921c-2.974-1.238-6.234-1.922-9.658-1.923C408.869,157,397.6,168.273,397.597,182.18
			c0.003,13.907,11.272,25.181,25.181,25.183c13.909-0.002,25.182-11.274,25.185-25.183c0-1.282-0.099-2.541-0.283-3.771
			c2.786-2.27,4.565-5.726,4.565-9.599c0-6.835-5.543-12.375-12.373-12.375c-2.795,0-5.373,0.927-7.443,2.491
			C432.43,158.925,432.433,158.923,432.436,158.921z M439.871,179.267c-2.891,0-5.496-1.17-7.394-3.062
			c-1.897-1.896-3.062-4.502-3.062-7.394c0-2.888,1.164-5.497,3.062-7.39c1.897-1.894,4.503-3.062,7.394-3.062
			c2.889,0,5.492,1.17,7.391,3.062c1.895,1.893,3.062,4.502,3.062,7.39c0,2.892-1.168,5.497-3.062,7.394
			C445.365,178.097,442.761,179.267,439.871,179.267z M422.777,160.906c2.366,0.002,4.637,0.391,6.76,1.104
			c-0.717,1.087-1.268,2.291-1.612,3.58c-1.627-0.504-3.354-0.775-5.147-0.775c-9.592,0-17.367,7.775-17.367,17.367
			c0,9.591,7.775,17.365,17.367,17.365c9.594,0,17.368-7.774,17.368-17.365c0-0.337-0.011-0.671-0.032-1.002
			c1.354-0.026,2.652-0.268,3.866-0.695c0.044,0.562,0.073,1.126,0.073,1.697c-0.001,5.881-2.377,11.188-6.232,15.045
			c-3.854,3.854-9.162,6.229-15.043,6.229c-5.88,0-11.187-2.377-15.041-6.229c-3.854-3.857-6.23-9.164-6.232-15.045
			c0.001-5.881,2.377-11.188,6.232-15.043C411.591,163.285,416.897,160.908,422.777,160.906z"/>
		<g>
			<g>
				<path fill="#2D2D2E" d="M477.193,162.642c-10.67,0-16.656,5.25-16.656,15.641c0,10.389,5.985,15.695,16.656,15.695
					c10.673,0,16.655-5.309,16.655-15.695C493.849,167.892,487.866,162.642,477.193,162.642z M477.193,187.708
					c-4.799,0-7.113-2.766-7.113-9.426c0-6.666,2.314-9.375,7.113-9.375s7.114,2.709,7.114,9.375
					C484.308,184.944,481.992,187.708,477.193,187.708z"/>
				<path fill="#2D2D2E" d="M552.167,187.087h-1.018c-1.242,0-2.314,0.338-3.781,0.338c-2.881,0-4.855-2.029-4.855-5.871v-10.104
					h7.68c0.959,0,1.692-0.736,1.692-1.697v-3.271c0-0.961-0.733-1.695-1.692-1.695h-7.68v-9.202c0-0.96-0.734-1.694-1.693-1.694
					h-6.154c-0.961,0-1.694,0.734-1.694,1.694v25.97c0,8.471,3.953,12.424,11.858,12.424c2.541,0,5.646-0.226,7.34-0.565
					c0.957-0.17,1.691-0.846,1.691-1.691v-2.936C553.86,187.824,553.126,187.087,552.167,187.087z"/>
				<path fill="#2D2D2E" d="M573.341,162.642c-9.146,0-15.018,2.031-15.018,7.904c0,0.959,0.733,1.693,1.693,1.693h4.121
					c1.411,0,2.428-0.564,3.161-1.47c0.96-1.187,3.05-1.862,5.364-1.862c3.781,0,5.646,1.355,5.646,5.76h-9.146
					c-7.396,0-13.043,3.218-13.043,9.599c0,6.379,5.646,9.711,13.043,9.711c4.349,0,7.453-1.3,9.994-3.104v0.849
					c0,0.957,0.734,1.692,1.694,1.692h5.308c0.961,0,1.692-0.735,1.692-1.692v-17.054
					C587.853,166.029,581.473,162.642,573.341,162.642z M578.31,185.225c-1.975,1.241-4.798,2.483-8.188,2.483
					c-2.937,0-4.461-1.467-4.461-3.442c0-1.863,1.524-3.331,4.182-3.331h8.467V185.225z"/>
				<path fill="#2D2D2E" d="M517.979,179.66c-1.354-1.832-1.239-2.287,0-3.709l10.888-10.889c1.021-1.021,0.676-1.855-0.769-1.855
					h-6c-1.442,0-3.459,0.834-4.479,1.855l-10.346,10.346v-0.232v-19.591c0-0.96-0.732-1.694-1.691-1.694h-6.154
					c-0.961,0-1.693,0.734-1.693,1.694v36.136c0,0.958,0.733,1.691,1.693,1.691h6.154c0.959,0,1.691-0.733,1.691-1.691v-10.278
					v-1.239l11.32,11.32c1.021,1.021,3.037,1.855,4.479,1.855h6.002c1.442,0,1.789-0.834,0.768-1.855L517.979,179.66z"/>
			</g>
		</g>
		<path fill="#2D2D2E" d="M438.783,177.269v-16.914c-4.199,0.535-7.447,4.113-7.447,8.455
			C431.336,173.16,434.584,176.737,438.783,177.269z"/>
		<path fill="#2D2D2E" d="M448.402,168.81c0-4.342-3.248-7.92-7.449-8.455v16.914C445.154,176.737,448.402,173.162,448.402,168.81z"
			/>
	</g>
</g>
<g id="Boxes">
	<path id="box-2-shadow" opacity="0.1" d="M167,356c0,6.075-4.925,11-11,11H18c-6.075,0-11-4.925-11-11V218c0-6.075,4.925-11,11-11
		h138c6.075,0,11,4.925,11,11V356z"/>
	<path id="box-2" fill="#FFFFFF" d="M160,349c0,6.075-4.925,11-11,11H11c-6.075,0-11-4.925-11-11V211c0-6.075,4.925-11,11-11h138
		c6.075,0,11,4.925,11,11V349z"/>
	<path id="box-1-shadow" opacity="0.1" stroke="#000000" stroke-miterlimit="10" d="M166.5,156.5c0,6.075-4.925,11-11,11h-138
		c-6.075,0-11-4.925-11-11v-138c0-6.075,4.925-11,11-11h138c6.075,0,11,4.925,11,11V156.5z"/>
	<path id="box-1" fill="#FFFFFF" d="M160,149c0,6.075-4.925,11-11,11H11c-6.075,0-11-4.925-11-11V11C0,4.925,4.925,0,11,0h138
		c6.075,0,11,4.925,11,11V149z"/>
</g>
<g id="Logos">
	<g id="ms">
		<g>
			<path fill="#00ADEF" d="M27.582,309.589h-1.736l-1.42-3.754h-5.677l-1.335,3.754h-1.747l5.136-13.39h1.625L27.582,309.589z
				 M23.912,304.425l-2.101-5.704c-0.068-0.187-0.137-0.485-0.206-0.896h-0.037c-0.062,0.379-0.133,0.678-0.215,0.896l-2.083,5.704
				H23.912z"/>
			<path fill="#00ADEF" d="M35.784,309.15c-0.735,0.441-1.606,0.663-2.615,0.663c-1.363,0-2.464-0.443-3.3-1.331
				c-0.837-0.886-1.256-2.036-1.256-3.45c0-1.574,0.451-2.84,1.353-3.795c0.904-0.956,2.107-1.434,3.614-1.434
				c0.84,0,1.582,0.156,2.223,0.467v1.568c-0.709-0.497-1.469-0.747-2.278-0.747c-0.977,0-1.779,0.351-2.404,1.052
				c-0.626,0.7-0.938,1.618-0.938,2.759c0,1.119,0.294,2.005,0.883,2.65c0.587,0.648,1.377,0.973,2.367,0.973
				c0.833,0,1.618-0.277,2.353-0.831V309.15L35.784,309.15z"/>
			<path fill="#00ADEF" d="M43.009,309.495c-0.361,0.2-0.837,0.299-1.429,0.299c-1.674,0-2.511-0.933-2.511-2.801v-5.659h-1.644
				v-1.307h1.644v-2.335l1.531-0.495v2.83h2.409v1.307H40.6v5.388c0,0.642,0.109,1.099,0.327,1.374
				c0.218,0.273,0.579,0.41,1.083,0.41c0.385,0,0.719-0.106,0.999-0.316V309.495L43.009,309.495z"/>
			<path fill="#00ADEF" d="M45.82,297.6c-0.274,0-0.507-0.094-0.7-0.28c-0.193-0.186-0.29-0.423-0.29-0.709s0.097-0.524,0.29-0.715
				c0.193-0.19,0.426-0.285,0.7-0.285c0.28,0,0.519,0.095,0.715,0.285c0.196,0.188,0.293,0.428,0.293,0.715
				c0,0.273-0.097,0.506-0.293,0.699C46.339,297.504,46.101,297.6,45.82,297.6z M46.567,309.589h-1.531v-9.562h1.531V309.589z"/>
			<path fill="#00ADEF" d="M57.379,300.027l-3.809,9.562h-1.504l-3.623-9.562h1.68l2.428,6.947c0.18,0.51,0.292,0.955,0.336,1.335
				h0.037c0.062-0.479,0.161-0.912,0.299-1.299l2.54-6.983H57.379L57.379,300.027z"/>
			<path fill="#00ADEF" d="M66.058,305.191h-6.751c0.024,1.064,0.311,1.886,0.859,2.465c0.547,0.578,1.301,0.869,2.259,0.869
				c1.077,0,2.066-0.356,2.969-1.066v1.44c-0.84,0.608-1.952,0.914-3.333,0.914c-1.352,0-2.413-0.435-3.185-1.303
				c-0.771-0.869-1.158-2.09-1.158-3.665c0-1.488,0.422-2.7,1.265-3.637c0.844-0.938,1.892-1.405,3.143-1.405
				c1.252,0,2.22,0.405,2.904,1.214c0.685,0.81,1.027,1.933,1.027,3.371V305.191L66.058,305.191z M64.488,303.894
				c-0.006-0.885-0.219-1.572-0.639-2.064c-0.42-0.491-1.004-0.738-1.751-0.738c-0.722,0-1.335,0.261-1.839,0.775
				c-0.504,0.517-0.815,1.193-0.934,2.027H64.488z"/>
			<path fill="#00ADEF" d="M74.62,309.589v-13.39h3.697c4.719,0,7.078,2.176,7.078,6.527c0,2.066-0.655,3.726-1.965,4.98
				c-1.311,1.255-3.064,1.882-5.261,1.882H74.62z M76.188,297.618v10.551h1.999c1.755,0,3.122-0.47,4.099-1.409
				c0.977-0.939,1.465-2.271,1.465-3.996c0-3.431-1.824-5.145-5.471-5.145L76.188,297.618L76.188,297.618z"/>
			<path fill="#00ADEF" d="M88.665,297.6c-0.274,0-0.508-0.094-0.7-0.28c-0.193-0.186-0.29-0.423-0.29-0.709s0.096-0.524,0.29-0.715
				c0.192-0.19,0.425-0.285,0.7-0.285c0.281,0,0.518,0.095,0.714,0.285c0.196,0.188,0.294,0.428,0.294,0.715
				c0,0.273-0.098,0.506-0.294,0.699C89.183,297.504,88.945,297.6,88.665,297.6z M89.412,309.589H87.88v-9.562h1.531V309.589z"/>
			<path fill="#00ADEF" d="M97.431,301.577c-0.268-0.205-0.654-0.309-1.158-0.309c-0.653,0-1.2,0.309-1.638,0.925
				c-0.439,0.616-0.659,1.458-0.659,2.521v4.874h-1.531v-9.562h1.531v1.971h0.037c0.218-0.672,0.55-1.196,0.999-1.572
				c0.449-0.377,0.95-0.565,1.504-0.565c0.398,0,0.703,0.043,0.915,0.131V301.577z"/>
			<path fill="#00ADEF" d="M106.937,305.191h-6.752c0.025,1.064,0.312,1.886,0.859,2.465c0.548,0.578,1.302,0.869,2.26,0.869
				c1.077,0,2.067-0.356,2.97-1.066v1.44c-0.84,0.608-1.952,0.914-3.333,0.914c-1.351,0-2.413-0.435-3.184-1.303
				c-0.772-0.869-1.158-2.09-1.158-3.665c0-1.488,0.422-2.7,1.266-3.637c0.843-0.938,1.891-1.405,3.142-1.405
				c1.251,0,2.219,0.405,2.904,1.214c0.685,0.81,1.027,1.933,1.027,3.371V305.191L106.937,305.191z M105.367,303.894
				c-0.006-0.885-0.219-1.572-0.639-2.064c-0.42-0.491-1.003-0.738-1.751-0.738c-0.722,0-1.335,0.261-1.839,0.775
				c-0.504,0.517-0.816,1.193-0.934,2.027H105.367z"/>
			<path fill="#00ADEF" d="M115.966,309.15c-0.734,0.441-1.605,0.663-2.614,0.663c-1.363,0-2.463-0.443-3.3-1.331
				c-0.837-0.886-1.256-2.036-1.256-3.45c0-1.574,0.451-2.84,1.354-3.795c0.903-0.956,2.107-1.434,3.613-1.434
				c0.84,0,1.581,0.156,2.223,0.467v1.568c-0.709-0.497-1.47-0.747-2.278-0.747c-0.978,0-1.779,0.351-2.404,1.052
				c-0.625,0.7-0.939,1.618-0.939,2.759c0,1.119,0.294,2.005,0.883,2.65c0.588,0.648,1.377,0.973,2.367,0.973
				c0.834,0,1.619-0.277,2.354-0.831L115.966,309.15L115.966,309.15z"/>
			<path fill="#00ADEF" d="M123.191,309.495c-0.361,0.2-0.837,0.299-1.428,0.299c-1.675,0-2.512-0.933-2.512-2.801v-5.659h-1.644
				v-1.307h1.644v-2.335l1.531-0.495v2.83h2.409v1.307h-2.409v5.388c0,0.642,0.108,1.099,0.326,1.374
				c0.218,0.273,0.58,0.41,1.084,0.41c0.385,0,0.718-0.106,0.999-0.316V309.495z"/>
			<path fill="#00ADEF" d="M129.145,309.813c-1.413,0-2.542-0.447-3.385-1.341c-0.844-0.894-1.266-2.078-1.266-3.553
				c0-1.605,0.439-2.861,1.316-3.764c0.878-0.902,2.064-1.354,3.558-1.354c1.425,0,2.538,0.438,3.338,1.316
				c0.801,0.878,1.2,2.096,1.2,3.651c0,1.525-0.431,2.747-1.294,3.665C131.751,309.354,130.595,309.813,129.145,309.813z
				 M129.256,301.091c-0.983,0-1.761,0.335-2.334,1.005c-0.572,0.669-0.859,1.593-0.859,2.769c0,1.132,0.29,2.026,0.868,2.68
				c0.579,0.653,1.354,0.981,2.325,0.981c0.991,0,1.751-0.321,2.283-0.963s0.798-1.553,0.798-2.735c0-1.196-0.266-2.117-0.798-2.763
				C131.007,301.415,130.247,301.091,129.256,301.091z"/>
			<path fill="#00ADEF" d="M140.785,301.577c-0.268-0.205-0.653-0.309-1.158-0.309c-0.654,0-1.2,0.309-1.638,0.925
				c-0.439,0.616-0.659,1.458-0.659,2.521v4.874h-1.531v-9.562h1.531v1.971h0.038c0.218-0.672,0.55-1.196,0.999-1.572
				c0.449-0.377,0.949-0.565,1.504-0.565c0.397,0,0.703,0.043,0.915,0.131V301.577z"/>
			<path fill="#00ADEF" d="M151.015,300.027l-4.397,11.093c-0.785,1.979-1.887,2.969-3.306,2.969c-0.398,0-0.731-0.04-1-0.121
				v-1.372c0.33,0.112,0.632,0.167,0.906,0.167c0.771,0,1.352-0.46,1.737-1.382l0.766-1.811l-3.735-9.543h1.7l2.586,7.357
				c0.031,0.094,0.096,0.336,0.196,0.729h0.057c0.03-0.149,0.094-0.386,0.186-0.709l2.717-7.377H151.015L151.015,300.027z"/>
		</g>
		<path fill="#00ADEF" d="M57.47,255.252l18.187-2.525v17.556l-18.187,0.126V255.252z M75.656,272.304v17.555l-18.187-2.525v-15.156
			L75.656,272.304z M77.677,252.474l24.123-3.283v20.839l-24.123,0.253V252.474L77.677,252.474z M101.8,272.557v20.838
			l-24.123-3.283v-17.808L101.8,272.557z"/>
		<g>
			<path fill="#00ADEF" d="M47.856,291.052c-0.067-0.137-0.136-0.213-0.205-0.229v-0.005c0.1-0.02,0.177-0.061,0.231-0.122
				c0.056-0.059,0.083-0.13,0.083-0.216c0-0.096-0.034-0.173-0.102-0.233c-0.08-0.069-0.197-0.104-0.352-0.104h-0.348v1.238h0.174
				v-0.519h0.113c0.08,0,0.153,0.073,0.222,0.223l0.134,0.297h0.211L47.856,291.052z M47.524,290.712h-0.185v-0.421h0.153
				c0.107,0,0.183,0.02,0.229,0.055c0.04,0.033,0.059,0.084,0.059,0.155C47.78,290.643,47.695,290.712,47.524,290.712z"/>
			<path fill="#00ADEF" d="M48.237,290.076c-0.185-0.177-0.414-0.268-0.687-0.268c-0.279,0-0.511,0.095-0.698,0.28
				c-0.187,0.188-0.28,0.416-0.28,0.688c0,0.278,0.091,0.507,0.275,0.688c0.184,0.182,0.416,0.272,0.695,0.272
				c0.277,0,0.508-0.093,0.697-0.278c0.189-0.186,0.282-0.415,0.282-0.688C48.521,290.49,48.427,290.26,48.237,290.076z
				 M48.155,291.39c-0.167,0.166-0.37,0.248-0.608,0.248c-0.239,0-0.442-0.081-0.608-0.245c-0.167-0.165-0.252-0.372-0.252-0.618
				c0-0.242,0.081-0.446,0.245-0.611c0.163-0.165,0.37-0.247,0.616-0.247c0.24,0,0.443,0.082,0.609,0.246
				c0.166,0.163,0.249,0.368,0.249,0.613C48.405,291.02,48.322,291.226,48.155,291.39z"/>
			<path fill="#00ADEF" d="M17.404,290.793c0-0.46-0.01-0.793-0.028-0.998h0.013c0.052,0.24,0.104,0.416,0.153,0.524l1.748,3.905
				h0.293l1.746-3.934c0.045-0.102,0.097-0.268,0.153-0.496h0.015c-0.034,0.391-0.051,0.722-0.051,0.991v3.438h0.601v-5.118h-0.752
				l-1.604,3.556c-0.062,0.137-0.143,0.346-0.246,0.626h-0.025c-0.037-0.14-0.114-0.343-0.232-0.612l-1.57-3.569h-0.792v5.118h0.579
				V290.793z"/>
			<path fill="#00ADEF" d="M23.607,289.641c0.107,0,0.198-0.036,0.272-0.109c0.074-0.075,0.113-0.164,0.113-0.272
				c0-0.105-0.038-0.194-0.113-0.27c-0.074-0.072-0.166-0.107-0.272-0.107c-0.104,0-0.195,0.035-0.27,0.107
				c-0.073,0.075-0.111,0.164-0.111,0.27c0,0.113,0.038,0.203,0.111,0.276C23.412,289.605,23.503,289.641,23.607,289.641z"/>
			<rect x="23.308" y="290.568" fill="#00ADEF" width="0.583" height="3.655"/>
			<path fill="#00ADEF" d="M26.537,294.311c0.386,0,0.721-0.085,1.001-0.256v-0.556c-0.28,0.209-0.579,0.312-0.899,0.312
				c-0.378,0-0.679-0.122-0.904-0.37c-0.224-0.249-0.337-0.584-0.337-1.011c0-0.441,0.124-0.796,0.369-1.062
				c0.234-0.259,0.537-0.39,0.909-0.39c0.31,0,0.599,0.096,0.872,0.287v-0.601c-0.246-0.123-0.528-0.187-0.846-0.187
				c-0.58,0-1.042,0.185-1.385,0.554c-0.346,0.369-0.517,0.854-0.517,1.451c0,0.534,0.158,0.97,0.471,1.307
				C25.592,294.137,26.014,294.311,26.537,294.311z"/>
			<path fill="#00ADEF" d="M29.419,290.705c-0.178,0.146-0.31,0.351-0.396,0.618h-0.014v-0.755h-0.585v3.655h0.585v-1.863
				c0-0.424,0.091-0.755,0.274-0.996c0.162-0.213,0.362-0.32,0.6-0.32c0.195,0,0.343,0.039,0.447,0.117v-0.606
				c-0.079-0.033-0.195-0.05-0.351-0.05C29.772,290.505,29.585,290.571,29.419,290.705z"/>
			<path fill="#00ADEF" d="M33.731,290.986c-0.308-0.337-0.732-0.507-1.277-0.507c-0.555,0-0.996,0.163-1.327,0.484
				c-0.357,0.349-0.535,0.84-0.535,1.474c0,0.559,0.157,1.007,0.471,1.346c0.32,0.352,0.757,0.527,1.305,0.527
				c0.557,0,1-0.176,1.329-0.527c0.327-0.352,0.492-0.819,0.492-1.401C34.189,291.79,34.036,291.325,33.731,290.986z
				 M33.293,293.438c-0.202,0.25-0.496,0.374-0.881,0.374c-0.371,0-0.667-0.122-0.888-0.369c-0.221-0.244-0.332-0.588-0.332-1.026
				c0-0.465,0.115-0.825,0.346-1.08c0.218-0.238,0.51-0.357,0.873-0.357c0.369,0,0.656,0.118,0.861,0.354
				c0.21,0.245,0.316,0.603,0.316,1.069C33.59,292.851,33.491,293.194,33.293,293.438z"/>
			<path fill="#00ADEF" d="M36.754,293.99c0.224-0.198,0.336-0.445,0.336-0.745c0-0.271-0.089-0.494-0.269-0.67
				c-0.137-0.14-0.362-0.274-0.674-0.404c-0.278-0.119-0.462-0.22-0.549-0.305c-0.097-0.089-0.146-0.216-0.146-0.377
				c0-0.15,0.059-0.272,0.176-0.368c0.116-0.094,0.272-0.143,0.465-0.143c0.312,0,0.588,0.087,0.83,0.262v-0.59
				c-0.231-0.115-0.491-0.172-0.781-0.172c-0.379,0-0.688,0.102-0.928,0.304c-0.24,0.201-0.361,0.453-0.361,0.756
				c0,0.271,0.077,0.491,0.232,0.66c0.129,0.144,0.347,0.281,0.653,0.414c0.297,0.131,0.497,0.243,0.6,0.337
				c0.104,0.092,0.154,0.21,0.154,0.352c0,0.341-0.232,0.511-0.696,0.511c-0.347,0-0.664-0.116-0.95-0.35v0.629
				c0.257,0.147,0.56,0.22,0.907,0.22C36.174,294.311,36.51,294.203,36.754,293.99z"/>
			<path fill="#00ADEF" d="M40.806,290.986c-0.307-0.337-0.731-0.507-1.276-0.507c-0.555,0-0.999,0.163-1.328,0.484
				c-0.356,0.349-0.535,0.84-0.535,1.474c0,0.559,0.158,1.007,0.471,1.346c0.321,0.352,0.757,0.527,1.307,0.527
				c0.557,0,0.999-0.176,1.326-0.527c0.328-0.352,0.494-0.819,0.494-1.401C41.266,291.79,41.111,291.325,40.806,290.986z
				 M40.367,293.438c-0.201,0.25-0.495,0.374-0.88,0.374c-0.371,0-0.667-0.122-0.891-0.369c-0.219-0.244-0.329-0.588-0.329-1.026
				c0-0.465,0.114-0.825,0.345-1.08c0.219-0.238,0.512-0.357,0.875-0.357c0.369,0,0.656,0.118,0.86,0.354
				c0.212,0.245,0.317,0.603,0.317,1.069C40.665,292.851,40.566,293.194,40.367,293.438z"/>
			<path fill="#00ADEF" d="M42.256,294.224h0.585v-3.158h0.857v-0.497h-0.857v-0.562c0-0.518,0.204-0.774,0.613-0.774
				c0.146,0,0.274,0.032,0.389,0.096v-0.528c-0.103-0.042-0.244-0.064-0.424-0.064c-0.312,0-0.575,0.1-0.789,0.297
				c-0.251,0.228-0.375,0.543-0.375,0.945v0.592h-0.621v0.496h0.621V294.224L42.256,294.224z"/>
			<path fill="#00ADEF" d="M44.646,293.227c0,0.718,0.319,1.079,0.957,1.079c0.227,0,0.411-0.04,0.549-0.119v-0.499
				c-0.107,0.078-0.232,0.117-0.378,0.117c-0.195,0-0.333-0.051-0.417-0.157c-0.084-0.102-0.125-0.276-0.125-0.521v-2.062h0.92
				v-0.496h-0.92v-1.082c-0.205,0.066-0.399,0.132-0.586,0.189v0.893h-0.627v0.496h0.627V293.227z"/>
		</g>
	</g>
	<g id="workday">
		<path fill="#F6A11F" d="M83.615,57.021c4.481-0.154,8.992,0.52,13.219,2.019c6.359,2.232,12.042,6.324,16.201,11.623
			c1.829,2.324,3.361,4.88,4.562,7.583c0.213,0.45,0.376,0.956,0.263,1.457c-0.139,0.842-0.877,1.537-1.725,1.622
			c-0.881,0.129-1.792-0.421-2.106-1.251c-2.387-5.619-6.464-10.5-11.547-13.878c-3.142-2.1-6.667-3.63-10.349-4.486
			c-4.749-1.11-9.748-1.11-14.498-0.003c-6.78,1.561-12.99,5.451-17.369,10.855c-1.858,2.277-3.391,4.816-4.546,7.517
			c-0.25,0.627-0.825,1.12-1.495,1.229c-0.647,0.125-1.35-0.098-1.801-0.58c-0.532-0.532-0.706-1.383-0.432-2.083
			c3.181-7.52,9.071-13.838,16.312-17.598C73.021,58.577,78.297,57.2,83.615,57.021L83.615,57.021z"/>
		<path fill="#0A6DAE" d="M77.693,80.176c-0.027-0.391,0.342-0.683,0.708-0.692c0.477-0.012,0.953-0.008,1.43-0.001
			c0.331,0.011,0.718,0.231,0.716,0.604c0.017,4.37-0.01,8.741,0.015,13.114c1.771-1.97,3.556-3.928,5.333-5.891
			c0.351-0.344,0.626-0.867,1.172-0.912c0.732-0.031,1.468-0.013,2.202-0.012c0.283-0.026,0.599,0.233,0.5,0.536
			c-0.117,0.232-0.33,0.392-0.503,0.578c-1.921,1.92-3.85,3.833-5.762,5.762c1.846,2.107,3.667,4.237,5.506,6.353
			c0.236,0.3,0.532,0.557,0.73,0.888c0.147,0.259-0.095,0.576-0.373,0.587c-0.611,0.034-1.223,0-1.835,0.015
			c-0.318-0.007-0.662,0.039-0.951-0.124c-0.305-0.175-0.489-0.488-0.708-0.75c-1.773-2.232-3.534-4.475-5.313-6.704
			c-0.019,2.198-0.005,4.395-0.007,6.592c-0.007,0.252,0.045,0.559-0.176,0.744c-0.351,0.339-0.874,0.22-1.313,0.241
			c-0.389-0.013-0.844,0.073-1.161-0.215c-0.176-0.137-0.222-0.37-0.216-0.578C77.694,93.598,77.688,86.886,77.693,80.176
			L77.693,80.176z"/>
		<path fill="#0A6DAE" d="M69.616,86.349c0.889-0.287,1.891-0.34,2.762,0.037c0.305,0.144,0.66,0.448,0.523,0.826
			c-0.141,0.474-0.26,0.953-0.426,1.418c-0.123,0.333-0.509,0.457-0.835,0.393c-0.733-0.127-1.454-0.368-2.205-0.344
			c-0.525-0.013-1.009,0.27-1.368,0.633c-0.579,0.567-0.878,1.359-1.013,2.144c-0.107,0.568-0.076,1.149-0.081,1.722
			c0,2.411,0,4.823-0.001,7.234c0.034,0.396-0.375,0.666-0.733,0.679c-0.492,0.007-0.982,0.013-1.473-0.003
			c-0.356-0.019-0.754-0.278-0.709-0.677c-0.001-4.465-0.005-8.927,0.001-13.392c-0.03-0.445,0.461-0.686,0.848-0.645
			c0.484,0.032,1.145-0.15,1.459,0.337c0.239,0.565,0.353,1.174,0.577,1.745C67.616,87.529,68.511,86.713,69.616,86.349
			L69.616,86.349z"/>
		<path fill="#0A6DAE" d="M19.501,86.689c0.136-0.157,0.296-0.326,0.524-0.31c0.667-0.006,1.334-0.021,2.001,0.01
			c0.339,0.01,0.572,0.308,0.621,0.622c0.656,2.667,1.299,5.335,1.952,8.002c0.191,0.823,0.424,1.639,0.549,2.476
			c0.128,0.752,0.154,1.516,0.276,2.27c0.169-1.075,0.319-2.159,0.61-3.209c0.853-3.182,1.705-6.364,2.56-9.545
			c0.066-0.362,0.407-0.62,0.771-0.62c0.742-0.019,1.486-0.007,2.227-0.007c0.398-0.018,0.824,0.214,0.92,0.622
			c0.637,2.321,1.266,4.644,1.902,6.966c0.385,1.504,0.889,2.982,1.107,4.525c0.061,0.425,0.119,0.851,0.207,1.273
			c0.239-2.424,0.862-4.783,1.376-7.157c0.424-1.888,0.838-3.779,1.266-5.667c0.064-0.378,0.465-0.569,0.818-0.559
			c0.601-0.004,1.202-0.02,1.801,0.01c0.355,0.009,0.56,0.404,0.435,0.721c-1.204,4.444-2.404,8.889-3.609,13.333
			c-0.064,0.356-0.375,0.634-0.739,0.64c-0.93,0.03-1.861,0.007-2.792,0.012c-0.333,0.021-0.686-0.158-0.745-0.51
			c-0.833-3.055-1.649-6.116-2.473-9.174c-0.298-1.063-0.42-2.166-0.546-3.26c-0.152,0.974-0.229,1.964-0.488,2.921
			c-0.844,3.148-1.694,6.299-2.54,9.448c-0.096,0.51-0.679,0.612-1.113,0.578c-0.864-0.015-1.729,0.02-2.593-0.015
			c-0.308,0-0.546-0.239-0.601-0.53c-1.213-4.424-2.422-8.852-3.638-13.277C19.504,87.081,19.51,86.883,19.501,86.689L19.501,86.689
			z"/>
		<path fill="#0A6DAE" d="M128.583,86.388c0.631-0.01,1.264-0.014,1.896,0c0.385,0.005,0.746,0.269,0.866,0.636
			c1.091,2.85,2.173,5.705,3.264,8.556c0.227,0.579,0.387,1.182,0.488,1.795c0.45-1.691,1.05-3.337,1.576-5.006
			c0.586-1.806,1.172-3.611,1.761-5.416c0.087-0.315,0.387-0.529,0.705-0.555c0.516-0.039,1.035-0.005,1.551-0.019
			c0.303,0.004,0.662-0.031,0.892,0.21c0.15,0.126,0.118,0.337,0.056,0.501c-1.743,4.971-3.48,9.945-5.221,14.917
			c-0.303,0.828-0.535,1.695-1.022,2.439c-0.698,1.135-1.831,1.953-3.074,2.394c-0.435,0.136-0.883,0.434-1.351,0.266
			c-0.332-0.085-0.459-0.429-0.636-0.683c-0.127-0.23-0.362-0.444-0.313-0.729c0.024-0.284,0.25-0.515,0.519-0.592
			c0.524-0.181,1.058-0.38,1.483-0.75c1.033-0.875,1.671-2.167,1.915-3.482c-0.165-0.584-0.47-1.122-0.691-1.687
			c-1.662-3.862-3.324-7.725-4.989-11.586c-0.101-0.252-0.249-0.494-0.278-0.768C127.982,86.529,128.327,86.397,128.583,86.388
			L128.583,86.388z"/>
		<path fill="#0A6DAE" d="M51.478,86.136c1.641-0.1,3.36,0.24,4.713,1.211c1.211,0.862,2.034,2.189,2.417,3.613
			c0.457,1.7,0.456,3.514,0.041,5.222c-0.39,1.575-1.303,3.06-2.679,3.954c-1.47,0.976-3.319,1.23-5.045,1.021
			c-1.471-0.181-2.904-0.826-3.928-1.91c-1.204-1.261-1.801-2.999-1.925-4.715c-0.151-1.904,0.14-3.92,1.2-5.546
			c0.783-1.224,2.029-2.124,3.418-2.534C50.27,86.271,50.874,86.187,51.478,86.136L51.478,86.136z M51.095,88.255
			c-0.906,0.169-1.733,0.733-2.194,1.537c-0.769,1.304-0.857,2.876-0.822,4.354c0.055,1.338,0.27,2.766,1.123,3.848
			c0.637,0.813,1.683,1.223,2.701,1.207c0.979,0.032,2.004-0.3,2.667-1.044c0.847-0.927,1.12-2.213,1.236-3.425
			c0.051-1.191,0.075-2.403-0.234-3.566c-0.245-0.983-0.764-1.965-1.662-2.494C53.075,88.16,52.042,88.111,51.095,88.255
			L51.095,88.255z"/>
		<path fill="#0A6DAE" d="M103.735,79.989c-0.021-0.343,0.329-0.562,0.633-0.588c0.488-0.026,0.976-0.014,1.463-0.008
			c0.372-0.004,0.788,0.273,0.734,0.687c0,6.743,0.001,13.484-0.001,20.226c0.025,0.348-0.317,0.619-0.639,0.639
			c-0.388,0.021-0.776,0.021-1.164-0.006c-0.272-0.016-0.537-0.191-0.63-0.452c-0.146-0.439-0.22-0.895-0.333-1.34
			c-0.539,0.731-1.233,1.377-2.095,1.698c-1.229,0.453-2.599,0.46-3.863,0.152c-1.271-0.306-2.377-1.179-2.99-2.328
			c-0.962-1.754-1.076-3.816-1.016-5.774c0.034-1.672,0.354-3.436,1.442-4.762c0.821-1.124,2.167-1.769,3.528-1.938
			c1.264-0.184,2.637,0.029,3.684,0.795c0.496,0.349,0.893,0.815,1.245,1.304C103.727,85.525,103.729,82.756,103.735,79.989
			L103.735,79.989z M99.865,88.179c-0.899,0.058-1.766,0.574-2.168,1.396c-0.784,1.518-0.799,3.285-0.759,4.954
			c0.061,1.091,0.181,2.217,0.688,3.201c0.344,0.664,0.968,1.188,1.706,1.348c1.13,0.272,2.459,0.042,3.262-0.85
			c0.773-0.881,1.028-2.078,1.147-3.212c0.081-1.292,0.087-2.611-0.234-3.874c-0.22-0.846-0.594-1.69-1.262-2.277
			C101.6,88.298,100.705,88.081,99.865,88.179L99.865,88.179z"/>
		<path fill="#0A6DAE" d="M116.097,86.417c1.299-0.36,2.689-0.381,4.001-0.081c1.219,0.283,2.361,0.967,3.11,1.981
			c0.792,1.038,1.191,2.325,1.357,3.609c0.146,0.99,0.103,1.993,0.104,2.99c0,1.8,0,3.599-0.005,5.399
			c0.02,0.218-0.119,0.413-0.297,0.527c-0.304,0.186-0.677,0.104-1.013,0.125c-0.379-0.002-0.876,0.03-1.081-0.362
			c-0.201-0.463-0.243-0.979-0.372-1.464c-0.506,0.616-1.031,1.251-1.764,1.606c-1.118,0.552-2.423,0.521-3.619,0.287
			c-1.462-0.288-2.81-1.154-3.637-2.4c-0.985-1.451-1.343-3.243-1.329-4.975c-0.013-1.687,0.318-3.433,1.257-4.861
			C113.561,87.63,114.765,86.785,116.097,86.417L116.097,86.417z M117.351,88.263c-0.451,0.092-0.888,0.273-1.253,0.555
			c-0.729,0.568-1.091,1.471-1.284,2.347c-0.282,1.39-0.278,2.826-0.132,4.231c0.135,1.033,0.395,2.136,1.152,2.899
			c0.618,0.648,1.547,0.884,2.417,0.842c0.936,0.035,1.91-0.315,2.514-1.05c0.756-0.913,0.967-2.127,1.079-3.271
			c0.069-1.345,0.07-2.723-0.308-4.028c-0.239-0.814-0.675-1.624-1.412-2.087C119.312,88.169,118.285,88.12,117.351,88.263
			L117.351,88.263z"/>
		<path fill="#0A6DAE" d="M142.36,97.084c0.44-0.069,0.919-0.074,1.328,0.13c0.697,0.316,1.197,1.064,1.121,1.841
			c0.058,0.928-0.722,1.755-1.611,1.905c-1.002,0.212-2.081-0.513-2.285-1.513C140.65,98.44,141.348,97.309,142.36,97.084
			L142.36,97.084z M142.257,97.472c-0.743,0.273-1.21,1.13-1.02,1.903c0.192,0.909,1.249,1.528,2.13,1.192
			c0.812-0.248,1.327-1.175,1.073-1.992C144.219,97.656,143.128,97.112,142.257,97.472L142.257,97.472z"/>
		<path fill="#0A6DAE" d="M142.011,97.872c0.532,0.03,1.129-0.121,1.609,0.177c0.387,0.289,0.199,0.921-0.237,1.056
			c0.127,0.333,0.302,0.642,0.461,0.959c-0.201,0.003-0.399,0.007-0.599,0.01c-0.143-0.293-0.284-0.591-0.421-0.887
			c-0.087-0.003-0.172-0.004-0.256-0.005c-0.002,0.295-0.002,0.592-0.002,0.888c-0.187-0.001-0.373-0.005-0.558-0.006
			C142.009,99.333,142.007,98.602,142.011,97.872L142.011,97.872z M142.567,98.214c-0.002,0.21-0.003,0.421,0,0.633
			c0.184-0.01,0.374,0,0.556-0.05c0.171-0.072,0.155-0.289,0.108-0.435C143.054,98.188,142.791,98.233,142.567,98.214
			L142.567,98.214z"/>
	</g>
	<g>
	</g>
	<g>
	</g>
	<g>
	</g>
	<g>
	</g>
	<g>
	</g>
	<g>
	</g>
	<g>
	</g>
	<g>
	</g>
	<g>
	</g>
	<g>
	</g>
	<g>
	</g>
	<g>
	</g>
	<g>
	</g>
	<g>
	</g>
	<g>
	</g>
</g>
</svg>
